ffmpeg started on 2016-12-04 at 07:48:25
Report written to "Output/x264/results/ffmpeg/crowd_run_2160p50superfast1500k.log"
Command line:
Tools/ffmpeg/ffmpeg -benchmark -y -i Input/y4m/crowd_run_2160p50.y4m -c:v libx264 -preset superfast -b:v 1500k -an Output/x264/encoded/crowd_run_2160p50superfast1500k.mkv
ffmpeg version N-82227-gdb23fde Copyright (c) 2000-2016 the FFmpeg developers
  built with gcc 5.4.0 (Ubuntu 5.4.0-6ubuntu1~16.04.2) 20160609
  configuration: --prefix=/home/jaroslav/ffmpeg_build --pkg-config-flags=--static --extra-cflags=-I/home/jaroslav/ffmpeg_build/include --extra-ldflags=-L/home/jaroslav/ffmpeg_build/lib --bindir=/home/jaroslav/bin --enable-gpl --enable-libass --enable-libfdk-aac --enable-libfreetype --enable-libmp3lame --enable-libopus --enable-libtheora --enable-libvorbis --enable-libvpx --enable-libx264 --enable-libx265 --enable-nvenc --enable-libmfx --enable-libxvid --enable-libgsm --enable-libopencore-amrnb --enable-version3 --enable-nonfree
  libavutil      55. 35.100 / 55. 35.100
  libavcodec     57. 66.101 / 57. 66.101
  libavformat    57. 57.100 / 57. 57.100
  libavdevice    57.  2.100 / 57.  2.100
  libavfilter     6. 66.100 /  6. 66.100
  libswscale      4.  3.100 /  4.  3.100
  libswresample   2.  4.100 /  2.  4.100
  libpostproc    54.  2.100 / 54.  2.100
Input #0, yuv4mpegpipe, from 'Input/y4m/crowd_run_2160p50.y4m':
  Duration: 00:00:10.00, start: 0.000000, bitrate: 4976642 kb/s
    Stream #0:0: Video: rawvideo (I420 / 0x30323449), yuv420p(progressive), 3840x2160, SAR 1:1 DAR 16:9, 50 fps, 50 tbr, 50 tbn, 50 tbc
[libx264 @ 0x3c191c0] using SAR=1/1
[libx264 @ 0x3c191c0] using cpu capabilities: MMX2 SSE2Fast SSSE3 SSE4.2 AVX FMA3 AVX2 LZCNT BMI2
[libx264 @ 0x3c191c0] profile High, level 5.2
[libx264 @ 0x3c191c0] 264 - core 148 - H.264/MPEG-4 AVC codec - Copyleft 2003-2016 - http://www.videolan.org/x264.html - options: cabac=1 ref=1 deblock=1:0:0 analyse=0x3:0x3 me=dia subme=1 psy=1 psy_rd=1.00:0.00 mixed_ref=0 me_range=16 chroma_me=1 trellis=0 8x8dct=1 cqm=0 deadzone=21,11 fast_pskip=1 chroma_qp_offset=0 threads=6 lookahead_threads=1 sliced_threads=0 nr=0 decimate=1 interlaced=0 bluray_compat=0 constrained_intra=0 bframes=3 b_pyramid=2 b_adapt=1 b_bias=0 direct=1 weightb=1 open_gop=0 weightp=1 keyint=250 keyint_min=25 scenecut=40 intra_refresh=0 rc=abr mbtree=0 bitrate=1500 ratetol=1.0 qcomp=0.60 qpmin=0 qpmax=69 qpstep=4 ip_ratio=1.40 pb_ratio=1.30 aq=1:1.00
Output #0, matroska, to 'Output/x264/encoded/crowd_run_2160p50superfast1500k.mkv':
  Metadata:
    encoder         : Lavf57.57.100
    Stream #0:0: Video: h264 (libx264) (H264 / 0x34363248), yuv420p, 3840x2160 [SAR 1:1 DAR 16:9], q=-1--1, 1500 kb/s, 50 fps, 1k tbn, 50 tbc
    Metadata:
      encoder         : Lavc57.66.101 libx264
    Side data:
      cpb: bitrate max/min/avg: 0/0/1500000 buffer size: 0 vbv_delay: -1
Stream mapping:
  Stream #0:0 -> #0:0 (rawvideo (native) -> h264 (libx264))
Press [q] to stop, [?] for help
frame=   23 fps=0.0 q=68.0 size=       1kB time=00:00:00.14 bitrate=  41.6kbits/s speed=0.263x    frame=   41 fps= 39 q=66.0 size=       1kB time=00:00:00.50 bitrate=  11.7kbits/s speed=0.482x    frame=   59 fps= 36 q=65.0 size=       1kB time=00:00:00.86 bitrate=   6.8kbits/s speed=0.531x    frame=   77 fps= 36 q=65.0 size=       1kB time=00:00:01.22 bitrate=   4.8kbits/s speed=0.576x    frame=   95 fps= 35 q=64.0 size=       1kB time=00:00:01.58 bitrate=   3.7kbits/s speed=0.584x    frame=  114 fps= 36 q=63.0 size=       1kB time=00:00:01.96 bitrate=   3.0kbits/s speed=0.611x    frame=  131 fps= 35 q=64.0 size=       1kB time=00:00:02.30 bitrate=   2.5kbits/s speed=0.608x    frame=  150 fps= 35 q=63.0 size=       1kB time=00:00:02.68 bitrate=   2.2kbits/s speed=0.625x    frame=  167 fps= 34 q=64.0 size=       1kB time=00:00:03.02 bitrate=   1.9kbits/s speed=0.622x    frame=  186 fps= 35 q=63.0 size=       1kB time=00:00:03.40 bitrate=   1.7kbits/s speed=0.634x    frame=  203 fps= 34 q=64.0 size=       1kB time=00:00:03.74 bitrate=   1.6kbits/s speed=0.63x    frame=  222 fps= 34 q=63.0 size=       1kB time=00:00:04.12 bitrate=   1.4kbits/s speed=0.64x    frame=  239 fps= 34 q=64.0 size=       1kB time=00:00:04.46 bitrate=   1.3kbits/s speed=0.636x    frame=  258 fps= 34 q=63.0 size=       1kB time=00:00:04.84 bitrate=   1.2kbits/s speed=0.644x    frame=  277 fps= 34 q=65.0 size=     954kB time=00:00:05.22 bitrate=1497.0kbits/s speed=0.644x    frame=  295 fps= 34 q=66.0 size=     954kB time=00:00:05.58 bitrate=1400.5kbits/s speed=0.649x    frame=  313 fps= 34 q=65.0 size=     954kB time=00:00:05.94 bitrate=1315.6kbits/s speed=0.647x    frame=  331 fps= 34 q=66.0 size=     954kB time=00:00:06.30 bitrate=1240.5kbits/s speed=0.65x    frame=  349 fps= 34 q=65.0 size=     954kB time=00:00:06.66 bitrate=1173.4kbits/s speed=0.649x    frame=  368 fps= 34 q=64.0 size=     954kB time=00:00:07.04 bitrate=1110.1kbits/s speed=0.653x    frame=  385 fps= 34 q=65.0 size=     954kB time=00:00:07.38 bitrate=1058.9kbits/s speed=0.651x    frame=  403 fps= 34 q=66.0 size=     954kB time=00:00:07.74 bitrate=1009.7kbits/s speed=0.654x    frame=  421 fps= 34 q=65.0 size=     954kB time=00:00:08.10 bitrate= 964.8kbits/s speed=0.652x    frame=  438 fps= 34 q=66.0 size=     954kB time=00:00:08.44 bitrate= 926.0kbits/s speed=0.653x    frame=  455 fps= 34 q=66.0 size=     954kB time=00:00:08.78 bitrate= 890.1kbits/s speed=0.654x    frame=  473 fps= 34 q=65.0 size=     954kB time=00:00:09.14 bitrate= 855.1kbits/s speed=0.652x    frame=  491 fps= 34 q=66.0 size=     954kB time=00:00:09.50 bitrate= 822.7kbits/s speed=0.654x    frame=  500 fps= 33 q=-1.0 Lsize=    1924kB time=00:00:09.94 bitrate=1585.2kbits/s speed=0.661x    
video:1919kB audio:0kB subtitle:0kB other streams:0kB global headers:0kB muxing overhead: 0.219896%
bench: utime=34.476s
bench: maxrss=894428kB
[libx264 @ 0x3c191c0] frame I:2     Avg QP:51.00  size: 43262
[libx264 @ 0x3c191c0] frame P:126   Avg QP:51.00  size: 11377
[libx264 @ 0x3c191c0] frame B:372   Avg QP:51.00  size:  1195
[libx264 @ 0x3c191c0] consecutive B-frames:  0.8%  0.0%  0.0% 99.2%
[libx264 @ 0x3c191c0] mb I  I16..4: 76.6% 23.4%  0.0%
[libx264 @ 0x3c191c0] mb P  I16..4:  6.1%  1.5%  0.0%  P16..4:  8.9%  0.0%  0.0%  0.0%  0.0%    skip:83.5%
[libx264 @ 0x3c191c0] mb B  I16..4:  0.0%  0.0%  0.0%  B16..8:  1.1%  0.0%  0.0%  direct: 0.1%  skip:98.8%  L0:48.3% L1:51.6% BI: 0.1%
[libx264 @ 0x3c191c0] final ratefactor: 57.85
[libx264 @ 0x3c191c0] 8x8 transform intra:20.0% inter:76.1%
[libx264 @ 0x3c191c0] coded y,uvDC,uvAC intra: 3.2% 29.6% 0.0% inter: 0.1% 0.4% 0.0%
[libx264 @ 0x3c191c0] i16 v,h,dc,p: 67% 23%  9%  1%
[libx264 @ 0x3c191c0] i8 v,h,dc,ddl,ddr,vr,hd,vl,hu: 13% 12% 32% 13%  4%  5%  5%  6% 10%
[libx264 @ 0x3c191c0] i8c dc,h,v,p: 98%  1%  1%  0%
[libx264 @ 0x3c191c0] Weighted P-Frames: Y:0.8% UV:0.0%
[libx264 @ 0x3c191c0] kb/s:1571.83
